<svg data-name="Layer 1" id="Layer_1" viewBox="0 0 32 32" width="256" height="256" xmlns="http://www.w3.org/2000/svg"><title/><path fill="#f93" d="M6,3V29H26V3H6ZM25,4V8H7V4H25ZM7,28V9H25V28H7Z"/><circle fill="#f93" cx="10" cy="6" r="1"/><circle fill="#f93" cx="14" cy="6" r="1"/><circle fill="#f93" cx="18" cy="6" r="1"/><circle fill="#f93" cx="22" cy="6" r="1"/><path fill="#f93" d="M16,11a7,7,0,1,0,7,7A7,7,0,0,0,16,11Zm0,13a6,6,0,1,1,6-6A6,6,0,0,1,16,24Z"/><path fill="#f93" d="M16,14a4,4,0,1,0,4,4A4,4,0,0,0,16,14Zm0,7a3,3,0,1,1,3-3A3,3,0,0,1,16,21Z"/></svg>